# xmcd
#
# Track frame offsets: 
#        151
#        18655
#        34827
#        53189
#        73034
#        92605
#        111065
#        129622
#        152538
#        172192
#        192010
#
# Disc length: 2851 seconds
#
# Revision: 0
# Processed by: cddbd v1.5.2PL0 Copyright (c) Steve Scherf et al.
# Submitted via: ExactAudioCopy v0.99pb5
#
DISCID=910b210b
DTITLE=Ken Valdez - every little lie
DYEAR=2002
DGENRE=Blues
TTITLE0=Hang Together
TTITLE1=Every Little Lie
TTITLE2=Forgetting Everything
TTITLE3=Tears
TTITLE4=What She Wants
TTITLE5=Sweet Surrender
TTITLE6=Every Time I Breathe
TTITLE7=Money No Good
TTITLE8=Cool Water
TTITLE9=Better Days To Come
TTITLE10=Overdue For The Blues
EXTD=
EXTT0=
EXTT1=
EXTT2=
EXTT3=
EXTT4=
EXTT5=
EXTT6=
EXTT7=
EXTT8=
EXTT9=
EXTT10=
PLAYORDER=
